<?xml version="1.0"?>
<svg width="300" height="300" xmlns="http://www.w3.org/2000/svg" xmlns:svg="http://www.w3.org/2000/svg" preserveAspectRatio="xMidYMid meet" version="1.0">
 <metadata>Created by potrace 1.10, written by Peter Selinger 2001-2011</metadata>
 <g class="layer">
  <title>Layer 1</title>
  <g fill="#000000" id="svg_1" transform="matrix(0.0778598 0 0 -0.0715126 -109.691 -343.719)">
   <path d="m3247.69,-5377.84c-22,-15 -22,-18 -22,-259c0,-197 3,-246 14,-258c9,-8 47,-16 98,-20c46,-4 99,-9 119,-13c39,-7 69,13 69,46c0,31 -27,48 -87,55c-32,3 -70,9 -85,11l-28,6l0,208c0,204 0,209 -22,224c-12,9 -25,16 -28,16c-3,0 -16,-7 -28,-16zm63,-454c31,-29 32,-40 2,-40c-44,0 -47,12 -47,225c0,111 3,205 8,209c4,4 8,-77 10,-182c2,-187 3,-189 27,-212z" fill="#dc5f00" id="svg_2"/>
   <path d="m2226.69,-5475.84c-87,-48 -50,-186 50,-186c25,0 79,27 79,40c0,6 89,10 235,10l235,0l0,-171c0,-98 4,-178 10,-190c14,-25 37,-24 123,6c40,13 91,29 114,35c27,7 44,17 48,30c10,30 -4,59 -30,66c-20,5 -94,-11 -150,-32c-13,-5 -15,12 -15,134c0,88 -4,151 -12,167c-23,51 -46,55 -309,55l-241,0l-30,25c-33,28 -70,31 -107,11zm95,-47c3,-6 20,-17 36,-24l30,-12l-57,-33l-57,-33l-26,20c-34,25 -39,49 -16,74c19,21 78,26 90,8zm554,-69c5,-10 10,-75 10,-143c0,-145 11,-170 71,-170l34,1l-40,-19c-22,-10 -49,-18 -60,-16c-19,2 -20,11 -23,164l-2,162l-30,25c-19,15 -25,26 -17,29c17,6 45,-10 57,-33z" fill="#dc5f00" id="svg_3"/>
   <path d="m4230.69,-5473.84c-11,-6 -24,-17 -28,-25c-6,-10 -59,-13 -253,-13c-268,0 -291,-4 -313,-57c-8,-19 -11,-91 -9,-218l3,-190l75,-38c77,-40 196,-125 239,-171c31,-33 66,-33 86,-2c12,19 14,30 6,44c-23,43 -201,178 -282,214l-29,13l0,152l0,153l235,0c146,0 235,-4 235,-10c0,-13 54,-40 79,-40c52,0 101,48 101,99c0,73 -83,124 -145,89zm90,-62c19,-28 9,-58 -25,-76c-16,-9 -30,-5 -70,17c-28,15 -50,30 -50,33c0,3 17,15 38,27c50,30 87,29 107,-1zm-604,-52l-31,-26l0,-148c0,-175 -2,-171 122,-247c76,-47 199,-148 171,-141c-7,2 -46,30 -88,63c-42,33 -109,78 -148,100l-72,41l-3,168c-3,187 4,216 54,216l26,0l-31,-26z" fill="#dc5f00" id="svg_4"/>
   <path d="m2593.69,-6065.84c-68,-57 -138,-135 -183,-203l-28,-43l-161,0c-148,0 -163,2 -178,20c-47,54 -146,27 -164,-45c-24,-96 101,-168 164,-95c15,19 30,20 203,20l187,0l48,71c45,68 140,172 212,232c35,30 41,57 16,81c-26,26 -50,19 -116,-38zm-4,-84c-44,-42 -99,-106 -124,-141c-51,-73 -69,-87 -96,-77c-17,7 -15,9 13,21c19,8 53,42 86,87c58,78 168,188 188,188c6,0 -24,-35 -67,-78zm-566,-178c13,-9 35,-19 49,-23c24,-6 21,-9 -37,-39c-59,-31 -63,-32 -87,-17c-33,22 -38,41 -19,70c19,29 60,33 94,9z" fill="#dc5f00" id="svg_5"/>
   <path d="m3180.69,-6117.84c-11,-2 -45,-9 -75,-15c-261,-52 -492,-283 -561,-559c-20,-78 -17,-279 4,-356c74,-269 287,-478 557,-545c31,-8 106,-14 170,-14c64,0 139,6 170,14c275,68 492,285 561,561c17,68 17,278 0,340c-77,279 -273,480 -546,557c-50,14 -243,26 -280,17zm270,-59c249,-64 442,-255 511,-505c25,-89 25,-261 1,-355c-37,-141 -135,-294 -245,-378c-267,-206 -616,-206 -883,-1c-107,82 -186,196 -235,339c-25,72 -28,94 -28,215c0,126 2,141 31,223c42,118 85,188 168,273c178,179 439,251 680,189z" fill="#dc5f00" id="svg_6"/>
   <path d="m3178.69,-6238.84c-56,-19 -133,-89 -162,-148c-14,-28 -26,-73 -29,-112c-4,-54 -9,-67 -29,-81c-123,-85 -125,-92 -121,-424l3,-266l30,-44c17,-23 49,-53 70,-65c39,-22 48,-23 335,-23c287,0 296,1 335,23c21,12 53,42 70,65l30,44l0,282l0,282l-28,43c-24,36 -69,73 -101,84c-5,2 -13,35 -17,74c-9,89 -43,158 -104,211c-78,68 -186,90 -282,55zm221,-57c86,-50 125,-126 126,-242l0,-72l35,-6c45,-9 102,-65 110,-108c3,-18 5,-148 3,-288c-4,-368 16,-350 -398,-350c-312,0 -329,3 -373,64c-21,30 -22,41 -25,286c-2,140 0,270 3,288c8,42 65,99 109,107l34,7l4,87c5,100 32,160 93,207c81,61 195,70 279,20z" fill="#dc5f00" id="svg_7"/>
   <path d="m3205.69,-6380.84c-53,-28 -80,-82 -80,-163l0,-68l150,0l150,0l0,65c0,85 -25,137 -80,165c-49,25 -95,25 -140,1zm131,-42c21,-11 49,-69 49,-102c0,-41 -20,-48 -121,-45l-94,3l-3,35c-7,95 83,153 169,109z" fill="#dc5f00" id="svg_8"/>
   <path d="m2991.69,-6727.84c-24,-23 -24,-495 0,-518c23,-24 545,-24 568,0c24,23 24,495 0,518c-13,14 -53,16 -284,16c-231,0 -271,-2 -284,-16zm249,-30c11,-5 3,-13 -32,-29c-56,-26 -86,-56 -108,-107c-34,-82 -12,-144 83,-240c87,-89 98,-89 186,1c95,99 115,157 81,239c-22,51 -52,81 -108,107c-60,29 -46,35 77,35c58,0 96,-4 104,-12c17,-17 17,-429 0,-446c-17,-17 -479,-17 -496,0c-17,17 -17,429 0,446c13,13 183,17 213,6zm101,-70c100,-48 111,-201 18,-256c-18,-10 -35,-30 -38,-43c-11,-45 -81,-45 -92,0c-3,13 -20,33 -38,43c-43,26 -70,83 -63,138c11,104 118,163 213,118z" fill="#dc5f00" id="svg_9"/>
   <path d="m3241.69,-6927.84c-9,-8 -16,-24 -16,-34c0,-10 7,-26 16,-34c8,-9 24,-16 34,-16c43,0 65,54 34,84c-8,9 -24,16 -34,16c-10,0 -26,-7 -34,-16z" fill="#dc5f00" id="svg_10"/>
   <path d="m4530.69,-6273.84c-11,-6 -24,-17 -28,-25c-6,-10 -48,-13 -188,-13c-105,0 -188,-4 -200,-10c-27,-15 -24,-48 12,-121c59,-119 99,-276 99,-390c0,-80 -4,-79 275,-79l245,0l16,25c15,23 15,27 0,50l-16,25l-210,0l-209,0l-6,48c-17,125 -44,228 -90,335c-7,16 3,17 128,17c104,0 138,-3 144,-14c11,-18 47,-36 72,-36c52,0 101,48 101,99c0,73 -83,124 -145,89zm90,-62c13,-19 14,-29 5,-45c-21,-41 -45,-44 -104,-14c-30,16 -55,30 -55,33c0,3 19,15 42,27c57,29 93,29 112,-1zm-371,-25c3,-5 -3,-11 -14,-14c-11,-3 -25,-17 -31,-31c-10,-22 -8,-41 19,-124c34,-107 52,-187 52,-233c0,-22 10,-41 34,-65l34,-34l-24,-6c-39,-10 -51,9 -57,98c-7,96 -45,236 -89,325c-38,77 -33,93 26,93c25,0 47,-4 50,-9z" fill="#dc5f00" id="svg_11"/>
   <path d="m2278.69,-6538.84c-15,-38 -37,-137 -48,-225l-6,-48l-209,0l-210,0l-16,-25c-15,-23 -15,-27 0,-50l16,-25l245,0c197,0 246,3 258,14c9,9 16,47 20,100c3,47 16,126 28,176c25,101 20,120 -33,120c-24,0 -32,-6 -45,-37zm31,-92c-8,-32 -17,-96 -21,-141c-8,-87 -22,-110 -58,-96c-16,6 -16,9 10,36c23,24 30,44 41,117c12,82 28,143 37,143c3,0 -2,-26 -9,-59z" fill="#dc5f00" id="svg_12"/>
   <path d="m2261.69,-7027.84c-9,-8 -16,-23 -16,-32c0,-26 35,-143 59,-197c11,-26 21,-49 21,-51c0,-2 -60,-4 -133,-4c-120,0 -134,2 -149,20c-63,73 -188,1 -164,-95c18,-72 117,-99 164,-45c15,19 30,20 202,20c131,0 190,4 198,12c20,20 14,52 -23,126c-19,39 -46,110 -60,159c-14,48 -31,91 -38,95c-19,12 -44,9 -61,-8zm64,-121c12,-38 35,-96 52,-130c38,-79 34,-93 -30,-93c-60,0 -72,10 -33,26c45,19 47,48 12,152c-17,50 -31,96 -31,101c0,25 10,7 30,-56zm-288,-185c26,-13 47,-25 47,-28c0,-3 -25,-18 -56,-33l-56,-29l-26,20c-33,24 -38,48 -15,73c23,25 49,24 106,-3z" fill="#dc5f00" id="svg_13"/>
   <path d="m4228.69,-7019.84c-7,-4 -24,-47 -38,-95c-14,-49 -41,-120 -60,-159c-37,-74 -43,-106 -23,-126c8,-8 67,-12 198,-12c172,0 187,-1 202,-20c47,-54 146,-27 164,45c24,96 -101,168 -164,95c-15,-18 -29,-20 -149,-20c-73,0 -133,2 -133,4c0,2 10,25 21,51c24,54 59,171 59,197c0,35 -46,59 -77,40zm-4,-177c-27,-85 -29,-101 -18,-122c7,-13 23,-26 36,-29c38,-10 15,-24 -38,-24c-65,0 -69,14 -31,93c16,34 40,94 53,132c12,39 24,65 26,59c2,-6 -10,-55 -28,-109zm396,-139c19,-28 9,-58 -26,-76c-16,-9 -28,-6 -62,13c-23,14 -51,26 -62,28c-15,3 -7,10 30,31c65,34 100,35 120,4z" fill="#dc5f00" id="svg_14"/>
   <path d="m2483.69,-7472.84c-10,-6 -18,-22 -18,-37c0,-50 216,-235 328,-281l32,-13l0,-154l0,-154l-235,0c-146,0 -235,4 -235,10c0,13 -54,40 -79,40c-52,0 -101,-48 -101,-100c0,-33 26,-75 55,-88c40,-18 71,-14 103,13l30,25l241,0c265,0 288,4 310,57c8,19 11,91 9,218l-3,190l-65,34c-102,52 -168,100 -250,178c-75,73 -90,81 -122,62zm310,-255l87,-51l3,-168c3,-186 -4,-215 -54,-215l-26,0l31,26l31,26l0,148c0,175 2,171 -122,247c-80,49 -218,165 -218,184c0,5 41,-26 90,-69c50,-42 129,-100 178,-128zm-453,-408l45,-24l-56,-32l-56,-33l-26,20c-34,25 -39,49 -16,74c23,25 54,24 109,-5z" fill="#dc5f00" id="svg_15"/>
   <path d="m3944.69,-7537.84c-44,-47 -163,-132 -235,-168c-40,-20 -74,-43 -78,-52c-3,-8 -6,-96 -6,-195c0,-196 6,-225 55,-247c18,-8 101,-12 267,-12l240,0l30,-25c32,-27 63,-31 103,-13c29,13 55,55 55,88c0,52 -49,100 -101,100c-25,0 -79,-27 -79,-40c0,-6 -89,-10 -235,-10l-235,0l0,154l0,154l31,12c85,36 272,180 282,219c7,27 -19,61 -47,61c-12,0 -33,-12 -47,-26zm-4,-80c-27,-25 -88,-69 -133,-97c-124,-76 -122,-72 -122,-247l0,-148l31,-26l31,-26l-26,0c-50,0 -57,29 -54,215l3,169l82,47c45,26 113,72 150,103c80,67 109,74 38,10zm381,-519c15,-23 15,-27 0,-51c-26,-38 -40,-39 -101,-4l-55,32l42,23c58,32 93,32 114,0z" fill="#dc5f00" id="svg_16"/>
   <path d="m3042.69,-7806.84c-42,-41 -10,-81 70,-90c32,-3 70,-9 86,-11l27,-6l0,-209l0,-209l25,-16c23,-15 27,-15 50,0l25,16l0,209l0,209l28,6c15,2 53,8 85,11c82,9 112,49 68,89c-17,16 -27,16 -102,5c-77,-11 -233,-8 -315,7c-21,4 -36,1 -47,-11zm275,-78l-32,-33l0,-187c0,-118 -4,-187 -10,-187c-6,0 -10,69 -10,187l0,187l-32,33l-32,33l74,0l74,0l-32,-33z" fill="#dc5f00" id="svg_17"/>
  </g>
 </g>
</svg>